<svg id="Layer_1" data-name="Layer 1" xmlns="http://www.w3.org/2000/svg" viewBox="0 0 36 36"><defs><style>.cls-1{fill:#242424;}</style></defs><title>github-01</title><path class="cls-1" d="M22.6,17.7A1.7,1.7,0,0,1,21,19.5a1.8,1.8,0,0,1-1.7-1.8,1.7,1.7,0,1,1,3.3,0Zm-7.5-1.8a1.7,1.7,0,0,0-1.6,1.8,1.7,1.7,0,0,0,1.6,1.8,1.7,1.7,0,0,0,1.6-1.8A1.6,1.6,0,0,0,15.1,15.9ZM32,5.8V34.5l-7.4-6.7.8,2.9H7.3A3.3,3.3,0,0,1,4,27.4V5.8A3.3,3.3,0,0,1,7.3,2.5H28.7A3.3,3.3,0,0,1,32,5.8ZM27.5,21a21,21,0,0,0-2.4-9.4A7.5,7.5,0,0,0,20.7,10l-.3.2a10.8,10.8,0,0,1,4,2,13.8,13.8,0,0,0-11.9-.4l-1,.4a11.7,11.7,0,0,1,4.2-2.1h-.1a7.7,7.7,0,0,0-4.5,1.6A21.7,21.7,0,0,0,8.8,21a5.6,5.6,0,0,0,4.8,2.4l1.1-1.3a5.1,5.1,0,0,1-2.8-1.9l.7.4a11.6,11.6,0,0,0,10,.5l1.8-.9a5.1,5.1,0,0,1-2.9,1.9l1.1,1.3A5.9,5.9,0,0,0,27.5,21Z"/></svg>