<svg id="Layer_1" data-name="Layer 1" xmlns="http://www.w3.org/2000/svg" viewBox="0 0 36 36"><defs><style>.cls-1{fill:#242424;}</style></defs><title>github-01</title><path class="cls-1" d="M31.3,12.5c0,11.4-7.5,19.6-18.5,20A15.4,15.4,0,0,1,2.1,29.3c3.2.4,7.5-.7,9.6-2.9a6.1,6.1,0,0,1-6-4.2H8.5c-2.8-1.1-5-3.2-5-6.8a5.1,5.1,0,0,0,2.9.7c-2.5-1.4-4-6-2.2-8.9,3.2,3.6,7.1,6.8,13.6,7.1C16,7.2,25.3,3.6,29.2,8.3a16.1,16.1,0,0,0,4.2-1.8A4.6,4.6,0,0,1,30.6,10a5.8,5.8,0,0,0,3.5-1,6.5,6.5,0,0,1-2.8,3.5Z"/></svg>